<svg id="uuid-eeffa61f-542c-43e9-919a-46b1a38592c8" xmlns="http://www.w3.org/2000/svg" width="32.25mm" height="32.25mm" viewBox="0 0 91.41 91.41"><defs><style>
      .uuid-fc520656-fe00-4236-8cfc-f31f2cb1e5f5 {
        stroke-width: 0px;
      }
      .uuid-06bb5417-bc05-4a6b-b370-7841e9e23eb6 {
        fill: none;
        stroke: currentColor;
        stroke-linecap: round;
        stroke-linejoin: round;
        stroke-width: 2px;
      }
    </style></defs><g id="uuid-de2ea0c0-9b8a-4367-a427-861e8d62ad05"><g><path class="uuid-06bb5417-bc05-4a6b-b370-7841e9e23eb6" d="M2.3,89.11h0c-1.74-1.74-1.74-5.33,0-7.07l15.62-15.62,7.07,7.07-15.62,15.62c-1.74,1.74-5.34,1.74-7.07,0Z"/><path class="uuid-fc520656-fe00-4236-8cfc-f31f2cb1e5f5" d="M66.65,2.14s-26.78,24.71-33.23,34.65c-3.98,6.12-14.08,26.81-14.08,26.81l8.48,8.48s20.69-10.1,26.81-14.08c9.93-6.46,34.65-33.23,34.65-33.23,2.33-2.33,3.03-5.45.71-7.78l-15.56-15.56c-2.33-2.33-5.45-1.62-7.78.71"/><path class="uuid-06bb5417-bc05-4a6b-b370-7841e9e23eb6" d="M52.21,22.2c-6.32,6.26-12.6,12.63-15.26,16.71-.72,1.12-1.12,3.04-2.12,4.95"/><path class="uuid-06bb5417-bc05-4a6b-b370-7841e9e23eb6" d="M56.04,18.4c-.47.47-.94.93-1.42,1.41"/><path class="uuid-06bb5417-bc05-4a6b-b370-7841e9e23eb6" d="M54.63,41.03l-4.24-4.24c-1.16-1.16-1.16-3.08,0-4.24l19.09-19.09c1.16-1.16,2.94-1.31,4.24,0l4.24,4.24c1.01,1.01,1.16,3.09,0,4.24l-19.09,19.09c-1.16,1.16-3.09,1.16-4.24,0Z"/><line class="uuid-06bb5417-bc05-4a6b-b370-7841e9e23eb6" x1="7.25" y1="77.09" x2="14.32" y2="84.16"/></g></g></svg>