<svg id="uuid-302d7939-9344-4d3b-976a-1c462158c743" xmlns="http://www.w3.org/2000/svg" width="33.87mm" height="34.22mm" viewBox="0 0 96 97"><defs><style>
      .uuid-49e1629d-2588-4f8f-bc9f-0e4e05326e60 {
        stroke-width: 0px;
      }
      .uuid-45517a1e-9c77-4500-95a9-c75973aa5c56 {
        fill: none;
        stroke: currentColor;
        stroke-linecap: round;
        stroke-linejoin: round;
        stroke-width: 2px;
      }
    </style></defs><g id="uuid-28b84be7-1a04-4efc-97dc-766d1ab1a072"><g><path class="uuid-49e1629d-2588-4f8f-bc9f-0e4e05326e60" d="M53,96v-7c0-8,4-12,9-16s16-5,19-22c2.29-12.95-4.61-20.4-3-27,.85-3.5,2-7,8-12,3.09-2.57,6.38-4.49,9-5.81l-14.89-5.19c-4.17,7.82-11.03,16-18.11,16-5,0-4-1-14-1s-9,1-14,1c-7.09,0-13.95-8.18-18.12-16L1,6.19c2.62,1.32,5.91,3.24,9,5.81,6,5,7.15,8.5,8,12,1.61,6.6-5.29,14.05-3,27,3,17,13.88,18.16,19,22,4,3,9,8,9,16v7h10Z"/><path class="uuid-45517a1e-9c77-4500-95a9-c75973aa5c56" d="M80.12,1c-4.17,7.82-11.03,16-18.11,16-5,0-4-1-14-1s-9,1-14,1c-7.09,0-13.94-8.18-18.12-16"/><path class="uuid-45517a1e-9c77-4500-95a9-c75973aa5c56" d="M95,6.19c-2.62,1.32-5.91,3.24-9,5.81-6,5-7.15,8.5-8,12-1.61,6.6,5.29,14.05,3,27-3,17-14,18-19,22s-9,8-9,16v7"/><path class="uuid-45517a1e-9c77-4500-95a9-c75973aa5c56" d="M1,6.19c2.62,1.32,5.91,3.24,9,5.81,6,5,7.15,8.5,8,12,1.61,6.6-5.29,14.05-3,27,3,17,13.88,18.16,19,22,4,3,9,8,9,16v7"/></g></g></svg>