<svg id="uuid-6f16d162-eb54-478c-8353-161be9272640" xmlns="http://www.w3.org/2000/svg" width="29.63mm" height="33.51mm" viewBox="0 0 84 95"><defs><style>
      .uuid-71cbed10-ba81-44e5-b7fe-dc4594ed9398 {
        stroke-width: 0px;
      }
      .uuid-c53d08b9-30e9-4b88-830c-d10ceee82e18 {
        fill: none;
        stroke: currentColor;
        stroke-linecap: round;
        stroke-linejoin: round;
        stroke-width: 2px;
      }
    </style></defs><g id="uuid-ef57e845-cd47-45c5-810f-8909aeda0773"><g><path class="uuid-c53d08b9-30e9-4b88-830c-d10ceee82e18" d="M76.34,48.92c.43,2.29.66,4.66.66,7.08,0,20.99-17.01,38-38,38S1,76.99,1,56,18.01,18,39,18c1,0,2,.04,2.98.11"/><path class="uuid-c53d08b9-30e9-4b88-830c-d10ceee82e18" d="M68.46,79.68c-7.2-4.73-17.73-7.72-29.46-7.72s-22.26,2.99-29.46,7.72"/><path class="uuid-c53d08b9-30e9-4b88-830c-d10ceee82e18" d="M10.36,31.65c6.87,4.52,16.93,7.38,28.14,7.38,3.27,0,6.45-.24,9.47-.7"/><path class="uuid-c53d08b9-30e9-4b88-830c-d10ceee82e18" d="M59.89,59.97c-1.1,19.12-10.03,34.03-20.89,34.03-11.6,0-21-17.01-21-38s9.4-38,21-38"/><line class="uuid-c53d08b9-30e9-4b88-830c-d10ceee82e18" x1="1" y1="56" x2="56.86" y2="56"/><line class="uuid-c53d08b9-30e9-4b88-830c-d10ceee82e18" x1="39" y1="19" x2="39" y2="93"/><path class="uuid-71cbed10-ba81-44e5-b7fe-dc4594ed9398" d="M84,19.58c0,10.81-19,42.42-19,42.42,0,0-19-31.61-19-42.42S54.51,0,65,0s19,8.77,19,19.58"/><circle class="uuid-c53d08b9-30e9-4b88-830c-d10ceee82e18" cx="65" cy="19" r="12"/><path class="uuid-c53d08b9-30e9-4b88-830c-d10ceee82e18" d="M62.67,11c-1.05.74-1.74,1.96-1.74,3.34,0,2.25,1.82,4.07,4.07,4.07s4.07-1.82,4.07-4.07c0-1.38-.69-2.6-1.74-3.34"/><path class="uuid-c53d08b9-30e9-4b88-830c-d10ceee82e18" d="M59.2,25.06c1.16.55,2.57.53,3.76-.16,1.95-1.12,2.62-3.61,1.49-5.56-1.12-1.95-3.61-2.61-5.56-1.49-1.2.69-1.91,1.9-2.02,3.18"/><path class="uuid-c53d08b9-30e9-4b88-830c-d10ceee82e18" d="M73.13,21.03c-.11-1.28-.82-2.49-2.02-3.18-1.95-1.12-4.44-.46-5.56,1.49-1.12,1.95-.46,4.44,1.49,5.56,1.2.69,2.6.7,3.76.16"/></g></g></svg>