<svg id="uuid-63a2ccc1-2660-48e6-b090-1e31d473789a" xmlns="http://www.w3.org/2000/svg" width="22.93mm" height="31.4mm" viewBox="0 0 65 89"><defs><style>
      .uuid-5533256e-4d3c-4b22-9e81-f0f4dc03cce1 {
        stroke-width: 0px;
      }
      .uuid-9c2d0b85-039f-43e6-9e61-3c3ea8ae94d7 {
        fill: none;
        stroke: currentColor;
        stroke-linecap: round;
        stroke-linejoin: round;
        stroke-width: 2px;
      }
    </style></defs><g id="uuid-79f2f1c6-4eba-4557-a67e-263389b938ab"><g><polyline class="uuid-9c2d0b85-039f-43e6-9e61-3c3ea8ae94d7" points="55.57 71.5 62.5 83.5 56.35 81.85 54.71 88 48.71 77.61"/><polyline class="uuid-9c2d0b85-039f-43e6-9e61-3c3ea8ae94d7" points="36.13 71.5 29.21 83.5 35.35 81.85 37 88 43 77.61"/><path class="uuid-5533256e-4d3c-4b22-9e81-f0f4dc03cce1" d="M57.5,67c0-1.21-1.75-2.13-2.11-3.22-.37-1.13.5-2.9-.18-3.85-.69-.95-2.65-.67-3.59-1.36-.94-.68-1.27-2.64-2.4-3.01-1.09-.36-2.51,1.02-3.72,1.02s-2.62-1.37-3.71-1.02c-1.13.37-1.46,2.32-2.4,3.01-.95.69-2.9.41-3.59,1.36-.68.94.18,2.71-.19,3.85-.35,1.09-2.11,2.01-2.11,3.23s1.75,2.13,2.11,3.22c.37,1.13-.5,2.9.18,3.85.69.95,2.65.67,3.59,1.36.94.69,1.27,2.64,2.4,3.01,1.09.36,2.51-1.02,3.72-1.02s2.62,1.37,3.71,1.02c1.13-.37,1.46-2.32,2.4-3.01.95-.69,2.9-.41,3.59-1.36.68-.94-.18-2.71.19-3.85.35-1.09,2.11-2.02,2.11-3.23M46,72.83c-3.22,0-5.83-2.61-5.83-5.83s2.61-5.83,5.83-5.83,5.83,2.61,5.83,5.83-2.61,5.83-5.83,5.83"/><path class="uuid-5533256e-4d3c-4b22-9e81-f0f4dc03cce1" d="M45.5,14.63c0,2.69,2.18,4.87,4.87,4.87h13.63L45.5,1v13.63Z"/><path class="uuid-9c2d0b85-039f-43e6-9e61-3c3ea8ae94d7" d="M64,77.5V19L46,1H7C3.69,1,1,3.69,1,7v70.5c0,3.31,2.69,6,6,6h17.5"/><line class="uuid-9c2d0b85-039f-43e6-9e61-3c3ea8ae94d7" x1="5.5" y1="62.5" x2="28" y2="62.5"/><line class="uuid-9c2d0b85-039f-43e6-9e61-3c3ea8ae94d7" x1="5.5" y1="53.5" x2="34" y2="53.5"/><line class="uuid-9c2d0b85-039f-43e6-9e61-3c3ea8ae94d7" x1="5.5" y1="8.5" x2="8.5" y2="8.5"/><line class="uuid-9c2d0b85-039f-43e6-9e61-3c3ea8ae94d7" x1="14.5" y1="8.5" x2="11.5" y2="8.5"/><line class="uuid-9c2d0b85-039f-43e6-9e61-3c3ea8ae94d7" x1="20.5" y1="8.5" x2="17.5" y2="8.5"/><line class="uuid-9c2d0b85-039f-43e6-9e61-3c3ea8ae94d7" x1="5.5" y1="17.5" x2="41.5" y2="17.5"/><line class="uuid-9c2d0b85-039f-43e6-9e61-3c3ea8ae94d7" x1="5.5" y1="26.5" x2="41.5" y2="26.5"/><line class="uuid-9c2d0b85-039f-43e6-9e61-3c3ea8ae94d7" x1="5.5" y1="35.5" x2="59.5" y2="35.5"/><line class="uuid-9c2d0b85-039f-43e6-9e61-3c3ea8ae94d7" x1="5.5" y1="44.5" x2="59.5" y2="44.5"/><circle class="uuid-9c2d0b85-039f-43e6-9e61-3c3ea8ae94d7" cx="45.5" cy="67.5" r="6"/></g></g></svg>